<svg width="27" height="26" viewBox="0 0 27 26" fill="none" xmlns="http://www.w3.org/2000/svg">
<mask id="mask0_3_4289" style="mask-type:alpha" maskUnits="userSpaceOnUse" x="0" y="0" width="27" height="26">
<circle cx="13.1857" cy="13" r="13" fill="#D9D9D9"/>
</mask>
<g mask="url(#mask0_3_4289)">
<rect x="0.185669" width="26" height="26" fill="#004692"/>
<path d="M9.93567 15.8887L10.7355 17.6044L12.542 17.1761L11.733 18.8873L13.1857 20.0689L11.377 20.487L11.382 22.3887L9.93567 21.1989L8.48924 22.3887L8.49431 20.487L6.68567 20.0689L8.1383 18.8873L7.32937 17.1761L9.13574 17.6044L9.93567 15.8887Z" fill="#F5F7F8"/>
<path d="M18.6023 16.9727L19.1356 18.1165L20.3399 17.831L19.8005 18.9717L20.769 19.7595L19.5632 20.0382L19.5666 21.306L18.6023 20.5128L17.6381 21.306L17.6414 20.0382L16.4357 19.7595L17.4041 18.9717L16.8648 17.831L18.069 18.1165L18.6023 16.9727Z" fill="#F5F7F8"/>
<path d="M16.0746 8.30566L16.5189 9.25883L17.5225 9.02092L17.0731 9.97155L17.8801 10.628L16.8753 10.8603L16.8781 11.9168L16.0746 11.2558L15.271 11.9168L15.2738 10.8603L14.269 10.628L15.076 9.97155L14.6266 9.02092L15.6302 9.25883L16.0746 8.30566Z" fill="#F5F7F8"/>
<path d="M19.6857 5.41699L20.1301 6.37015L21.1337 6.13225L20.6842 7.08288L21.4912 7.73934L20.4864 7.97161L20.4892 9.0281L19.6857 8.36713L18.8821 9.0281L18.8849 7.97161L17.8801 7.73934L18.6871 7.08288L18.2377 6.13225L19.2413 6.37015L19.6857 5.41699Z" fill="#F5F7F8"/>
<path d="M23.2968 9.02734L23.7411 9.98051L24.7447 9.7426L24.2953 10.6932L25.1023 11.3497L24.0975 11.582L24.1003 12.6385L23.2968 11.9775L22.4932 12.6385L22.496 11.582L21.4912 11.3497L22.2982 10.6932L21.8488 9.7426L22.8524 9.98051L23.2968 9.02734Z" fill="#F5F7F8"/>
<circle cx="20.5884" cy="13.9028" r="0.902778" fill="#F5F7F8"/>
<mask id="mask1_3_4289" style="mask-type:alpha" maskUnits="userSpaceOnUse" x="0" y="0" width="14" height="13">
<path d="M0.185669 13C0.185669 5.8203 6.00597 -2.54413e-07 13.1857 -5.68248e-07L13.1857 13L0.185669 13Z" fill="#002F6C"/>
</mask>
<g mask="url(#mask1_3_4289)">
<path d="M4.70763 1.1317L3.9416 1.89773L14.6038 12.5599L15.3698 11.7939L4.70763 1.1317Z" fill="#F5F7F8"/>
<path d="M2.66488 3.17445L1.38815 4.45117L12.0503 15.1133L13.327 13.8366L2.66488 3.17445Z" fill="#F5F7F8"/>
<path d="M2.66488 3.17445L3.9416 1.89773L14.6038 12.5599L13.327 13.8366L2.66488 3.17445Z" fill="#DD2033"/>
<path d="M13.1857 4.33301V6.13856L6.32457 6.13856L6.32457 12.9997H4.51901V4.33301H13.1857Z" fill="#F5F7F8"/>
<path d="M13.1857 -0.722656V1.0829L1.99122 1.0829L1.99122 12.9996H0.185669V-0.722656H13.1857Z" fill="#F5F7F8"/>
<path fill-rule="evenodd" clip-rule="evenodd" d="M1.26901 12.9997H4.51901L4.51901 4.33301L13.1857 4.33301V1.08301H4.51901H1.26901L1.26901 4.33301L1.26901 12.9997Z" fill="#DD2033"/>
</g>
</g>
</svg>
