<svg width="42" height="42" viewBox="0 0 42 42" fill="none" xmlns="http://www.w3.org/2000/svg">
<g clip-path="url(#clip0_3_4955)">
<path d="M21 40.6875C31.8731 40.6875 40.6875 31.8731 40.6875 21C40.6875 10.1269 31.8731 1.3125 21 1.3125C10.1269 1.3125 1.3125 10.1269 1.3125 21C1.3125 31.8731 10.1269 40.6875 21 40.6875Z" fill="#E8FFE5"/>
<path opacity="0.15" d="M23.6248 38.0625C19.8892 38.0624 16.2306 36.9995 13.0765 34.998C9.92232 32.9964 7.40272 30.1388 5.81192 26.7588C4.22112 23.3788 3.62478 19.616 4.09255 15.9098C4.56032 12.2035 6.07288 8.70686 8.4536 5.82812C6.34062 7.57546 4.61592 9.74489 3.38999 12.1974C2.16406 14.65 1.46393 17.3315 1.33446 20.0704C1.20499 22.8092 1.64904 25.5448 2.63814 28.1021C3.62725 30.6593 5.13961 32.9818 7.07834 34.9207C9.01707 36.8595 11.3394 38.3721 13.8966 39.3613C16.4538 40.3506 19.1894 40.7949 21.9282 40.6656C24.6671 40.5363 27.3487 39.8364 29.8013 38.6106C32.2539 37.3849 34.4235 35.6603 36.171 33.5475C32.6447 36.4717 28.2058 38.0691 23.6248 38.0625Z" fill="#000028"/>
<path fill-rule="evenodd" clip-rule="evenodd" d="M7.73048 7.73012C0.401727 15.0589 0.401727 26.9411 7.73048 34.2699C15.0592 41.5986 26.9415 41.5986 34.2702 34.2699C41.599 26.9411 41.599 15.0589 34.2702 7.73012C26.9415 0.401367 15.0592 0.401366 7.73048 7.73012ZM6.42791 35.5724C-1.62023 27.5243 -1.62023 14.4757 6.42791 6.42755C14.4761 -1.62058 27.5247 -1.62059 35.5728 6.42755C43.6209 14.4757 43.6209 27.5243 35.5728 35.5724C27.5247 43.6206 14.4761 43.6206 6.42791 35.5724Z" fill="#2E4369"/>
<path fill-rule="evenodd" clip-rule="evenodd" d="M31.4904 15.1011C32.2098 15.8205 32.2098 16.9868 31.4904 17.7062L20.9832 28.2134C20.2638 28.9328 19.0974 28.9328 18.378 28.2134L12.477 22.3124C11.7577 21.593 11.7577 20.4267 12.477 19.7073C13.1964 18.9879 14.3628 18.9879 15.0822 19.7073L19.6806 24.3057L28.8853 15.1011C29.6046 14.3817 30.771 14.3817 31.4904 15.1011Z" fill="#2E4369"/>
</g>
<defs>
<clipPath id="clip0_3_4955">
<rect width="42" height="42" fill="white"/>
</clipPath>
</defs>
</svg>
